<svg width="300" height="92" viewBox="0 0 300 92" fill="none" xmlns="http://www.w3.org/2000/svg">
<rect width="300" height="92" rx="46" fill="#A1D0F1"/>
<path d="M71.72 62H71.24C70.1733 62 69.28 61.92 68.56 61.76C67.8667 61.6 67.2533 61.28 66.72 60.8C66.2133 60.2933 65.8133 59.7333 65.52 59.12C65.2533 58.5067 65.04 57.5867 64.88 56.36C64.64 54.52 64.52 52.0533 64.52 48.96C64.52 45.84 64.5333 43.64 64.56 42.36C64.6133 41.08 64.72 39.84 64.88 38.64C65.04 37.4133 65.2533 36.5067 65.52 35.92C65.8133 35.3067 66.2133 34.76 66.72 34.28C67.2533 33.7733 67.8667 33.4533 68.56 33.32C69.28 33.16 70.1733 33.08 71.24 33.08H71.72V62ZM73.32 33.08H78.4C80.3467 33.08 81.8133 33.4133 82.8 34.08C83.8133 34.7467 84.32 35.9067 84.32 37.56V41.16C84.32 41.72 84.1333 42 83.76 42H78.72C78.3467 42 78.12 41.9467 78.04 41.84C77.96 41.7333 77.92 41.5067 77.92 41.16V38.04C77.92 37.6133 77.8533 37.32 77.72 37.16C77.6133 36.9733 77.32 36.88 76.84 36.88H73.32V33.08ZM78.72 53.08H83.76C84.1333 53.08 84.32 53.36 84.32 53.92V57.52C84.32 59.1733 83.8133 60.3333 82.8 61C81.8133 61.6667 80.3467 62 78.4 62H73.32V58.2H76.84C77.32 58.2 77.6133 58.12 77.72 57.96C77.8533 57.7733 77.92 57.4667 77.92 57.04V53.92C77.92 53.5733 77.96 53.3467 78.04 53.24C78.12 53.1333 78.3467 53.08 78.72 53.08ZM96.095 33.08V57.04C96.095 57.44 96.1883 57.7333 96.375 57.92C96.5883 58.1067 97.0417 58.2 97.735 58.2H100.695V62H95.615C94.5483 62 93.655 61.92 92.935 61.76C92.2417 61.6 91.6283 61.28 91.095 60.8C90.5883 60.2933 90.1883 59.7333 89.895 59.12C89.6283 58.5067 89.415 57.5867 89.255 56.36C89.015 54.52 88.895 52.0533 88.895 48.96C88.895 45.84 88.9083 43.64 88.935 42.36C88.9883 41.08 89.095 39.84 89.255 38.64C89.415 37.4133 89.6283 36.5067 89.895 35.92C90.1883 35.3067 90.5883 34.76 91.095 34.28C91.6283 33.7733 92.2417 33.4533 92.935 33.32C93.655 33.16 94.5483 33.08 95.615 33.08H96.095ZM97.695 33.12H102.775C103.842 33.12 104.722 33.2 105.415 33.36C106.135 33.52 106.748 33.8533 107.255 34.36C107.788 34.84 108.188 35.3867 108.455 36C108.748 36.6133 108.975 37.5333 109.135 38.76C109.375 40.6 109.495 43.08 109.495 46.2C109.495 49.2933 109.468 51.48 109.415 52.76C109.388 54.04 109.295 55.2933 109.135 56.52C108.975 57.72 108.748 58.6267 108.455 59.24C108.188 59.8267 107.788 60.3733 107.255 60.88C106.748 61.36 106.135 61.68 105.415 61.84C104.722 61.9733 103.842 62.04 102.775 62.04H102.295V38.08C102.295 37.68 102.188 37.3867 101.975 37.2C101.788 37.0133 101.348 36.92 100.655 36.92H97.695V33.12ZM136.8 33.08V59.72C136.8 60.6533 136.653 61.2667 136.36 61.56C136.093 61.8533 135.507 62 134.6 62H128.92C127.347 62 126.307 61.76 125.8 61.28C125.32 60.8 124.893 59.56 124.52 57.56C123.773 53.6133 122.693 47.24 121.28 38.44C121.173 37.7733 121.013 37.3467 120.8 37.16C120.613 36.9733 120.28 36.8667 119.8 36.84H114.88V33.08H123.56C124.227 33.08 124.76 33.16 125.16 33.32C125.56 33.48 125.88 33.8267 126.12 34.36C126.387 34.8667 126.56 35.36 126.64 35.84C126.747 36.32 126.853 36.88 126.96 37.52C127.093 38.2933 127.28 39.4267 127.52 40.92C127.973 43.9333 128.68 48.1867 129.64 53.68C130.013 56.0267 130.267 57.3467 130.4 57.64C130.56 57.9067 130.827 58.0667 131.2 58.12V34.68C131.2 34.2 131.333 33.8133 131.6 33.52C131.867 33.2267 132.213 33.08 132.64 33.08H136.8ZM114.88 38.24H119.04C119.467 38.24 119.813 38.3867 120.08 38.68C120.347 38.9733 120.48 39.36 120.48 39.84V59.72C120.48 60.6267 120.36 61.24 120.12 61.56C119.88 61.8533 119.4 62 118.68 62H114.88V38.24ZM140.695 33.08H153.215C153.642 33.08 153.989 33.2267 154.255 33.52C154.522 33.8133 154.655 34.2 154.655 34.68V62H150.455C149.549 62 148.949 61.8533 148.655 61.56C148.389 61.2667 148.255 60.6533 148.255 59.72V38.08H141.855C141.082 38.08 140.695 37.44 140.695 36.16V33.08ZM156.255 33.08H162.655C163.429 33.08 163.815 33.72 163.815 35V38.08H156.255V33.08ZM177.748 36.88H174.028C173.602 36.88 173.388 36.9867 173.388 37.2V62H169.188C168.282 62 167.682 61.8533 167.388 61.56C167.122 61.2667 166.988 60.6533 166.988 59.72V35.36C166.988 34.4267 167.122 33.8133 167.388 33.52C167.682 33.2267 168.282 33.08 169.188 33.08H177.748V36.88ZM179.348 33.08H183.548C184.455 33.08 185.042 33.2267 185.308 33.52C185.602 33.8133 185.748 34.4267 185.748 35.36V59.68C185.748 60.6133 185.602 61.24 185.308 61.56C185.015 61.8533 184.428 62 183.548 62H179.348V48.6H174.988V44.8H179.348V33.08ZM198.322 62H197.842C196.775 62 195.882 61.92 195.162 61.76C194.468 61.6 193.855 61.28 193.322 60.8C192.815 60.2933 192.415 59.7333 192.122 59.12C191.855 58.5067 191.642 57.5867 191.482 56.36C191.242 54.52 191.122 52.0533 191.122 48.96C191.122 45.84 191.135 43.64 191.162 42.36C191.215 41.08 191.322 39.84 191.482 38.64C191.642 37.4133 191.855 36.5067 192.122 35.92C192.415 35.3067 192.815 34.76 193.322 34.28C193.855 33.7733 194.468 33.4533 195.162 33.32C195.882 33.16 196.775 33.08 197.842 33.08H198.322V62ZM199.922 33.08H205.002C206.948 33.08 208.415 33.4133 209.402 34.08C210.415 34.7467 210.922 35.9067 210.922 37.56V41.16C210.922 41.72 210.735 42 210.362 42H205.322C204.948 42 204.722 41.9467 204.642 41.84C204.562 41.7333 204.522 41.5067 204.522 41.16V38.04C204.522 37.6133 204.455 37.32 204.322 37.16C204.215 36.9733 203.922 36.88 203.442 36.88H199.922V33.08ZM205.322 53.08H210.362C210.735 53.08 210.922 53.36 210.922 53.92V57.52C210.922 59.1733 210.415 60.3333 209.402 61C208.415 61.6667 206.948 62 205.002 62H199.922V58.2H203.442C203.922 58.2 204.215 58.12 204.322 57.96C204.455 57.7733 204.522 57.4667 204.522 57.04V53.92C204.522 53.5733 204.562 53.3467 204.642 53.24C204.722 53.1333 204.948 53.08 205.322 53.08ZM213.977 33.08H226.497C226.923 33.08 227.27 33.2267 227.537 33.52C227.803 33.8133 227.937 34.2 227.937 34.68V62H223.737C222.83 62 222.23 61.8533 221.937 61.56C221.67 61.2667 221.537 60.6533 221.537 59.72V38.08H215.137C214.363 38.08 213.977 37.44 213.977 36.16V33.08ZM229.537 33.08H235.937C236.71 33.08 237.097 33.72 237.097 35V38.08H229.537V33.08Z" fill="white"/>
</svg>
