<svg width="300" height="92" viewBox="0 0 300 92" fill="none" xmlns="http://www.w3.org/2000/svg">
<rect width="300" height="92" rx="14" fill="#F2B705"/>
<path d="M74.536 28.912H82.696L90.232 51.088L89.128 50.608L95.704 34.24L98.92 43.792L88.744 65.632L74.536 28.912ZM92.248 28.912H99.16L107.848 50.368L106.6 50.176L113.08 28.912H120.568L106.936 65.536L92.248 28.912ZM121.666 46.384C121.666 43.952 122.13 41.648 123.058 39.472C123.986 37.296 125.266 35.376 126.898 33.712C128.562 32.016 130.482 30.688 132.658 29.728C134.834 28.768 137.17 28.288 139.666 28.288C142.13 28.288 144.45 28.768 146.626 29.728C148.802 30.688 150.722 32.016 152.386 33.712C154.082 35.376 155.394 37.296 156.322 39.472C157.282 41.648 157.762 43.952 157.762 46.384C157.762 48.88 157.282 51.216 156.322 53.392C155.394 55.568 154.082 57.488 152.386 59.152C150.722 60.784 148.802 62.064 146.626 62.992C144.45 63.92 142.13 64.384 139.666 64.384C137.17 64.384 134.834 63.92 132.658 62.992C130.482 62.064 128.562 60.784 126.898 59.152C125.266 57.488 123.986 55.568 123.058 53.392C122.13 51.216 121.666 48.88 121.666 46.384ZM128.866 46.384C128.866 47.952 129.138 49.424 129.682 50.8C130.258 52.144 131.042 53.344 132.034 54.4C133.058 55.424 134.226 56.224 135.538 56.8C136.882 57.376 138.338 57.664 139.906 57.664C141.41 57.664 142.802 57.376 144.082 56.8C145.394 56.224 146.53 55.424 147.49 54.4C148.45 53.344 149.202 52.144 149.746 50.8C150.29 49.424 150.562 47.952 150.562 46.384C150.562 44.784 150.274 43.296 149.698 41.92C149.154 40.544 148.386 39.344 147.394 38.32C146.434 37.264 145.298 36.448 143.986 35.872C142.674 35.296 141.25 35.008 139.714 35.008C138.178 35.008 136.754 35.296 135.442 35.872C134.13 36.448 132.978 37.264 131.986 38.32C130.994 39.344 130.226 40.544 129.682 41.92C129.138 43.296 128.866 44.784 128.866 46.384ZM175.405 28.672C177.613 28.672 179.581 28.96 181.309 29.536C183.037 30.08 184.477 30.88 185.629 31.936C186.813 32.96 187.709 34.208 188.317 35.68C188.925 37.12 189.229 38.752 189.229 40.576C189.229 42.016 189.005 43.456 188.557 44.896C188.141 46.336 187.437 47.648 186.445 48.832C185.485 50.016 184.205 50.976 182.605 51.712C181.005 52.416 179.021 52.768 176.653 52.768H171.661V64H164.701V28.672H175.405ZM176.605 46.048C177.661 46.048 178.541 45.872 179.245 45.52C179.949 45.168 180.493 44.72 180.877 44.176C181.293 43.632 181.581 43.072 181.741 42.496C181.933 41.888 182.029 41.328 182.029 40.816C182.029 40.432 181.965 39.952 181.837 39.376C181.741 38.768 181.517 38.16 181.165 37.552C180.813 36.944 180.269 36.432 179.533 36.016C178.829 35.6 177.869 35.392 176.653 35.392H171.661V46.048H176.605ZM183.133 50.368L191.869 64H183.757L174.829 50.56L183.133 50.368ZM204.663 41.248L204.471 43.024L205.527 41.68L217.047 28.672H226.071L211.479 44.512L226.119 64H217.287L206.391 48.928L204.663 50.656V64H197.607V28.672H204.663V41.248Z" fill="white"/>
</svg>
