<svg width="300" height="92" viewBox="0 0 300 92" fill="none" xmlns="http://www.w3.org/2000/svg">
<rect width="300" height="92" rx="20" fill="#0167B0"/>
<path d="M111.696 59H119.525L112.4 33.9973H103.589L104.101 35.7253L97.5947 59H103.867L104.677 55.0107H110.736L111.696 59ZM107.429 41.336L109.691 50.6587H105.552L107.429 41.336ZM129.071 54.8187H127.407V47.8853H129.071C129.825 47.8853 130.5 48.0844 131.097 48.4827C131.695 48.8667 131.993 49.5209 131.993 50.4453V51.9387C131.993 52.7209 131.759 53.3964 131.29 53.9653C130.82 54.5342 130.081 54.8187 129.071 54.8187ZM131.695 40.3973V40.9307C131.695 41.8693 131.474 42.6658 131.033 43.32C130.593 43.96 129.96 44.28 129.135 44.28H127.407V38.1147H128.964C129.846 38.1147 130.521 38.2853 130.991 38.6267C131.46 38.9538 131.695 39.544 131.695 40.3973ZM130.521 59.192C132.072 59.192 133.423 59 134.575 58.616C135.727 58.232 136.637 57.6987 137.306 57.016C137.988 56.3191 138.493 55.5298 138.82 54.648C139.147 53.752 139.311 52.7564 139.311 51.6613C139.311 48.0204 137.633 46.0507 134.276 45.752C135.599 45.4818 136.609 44.8062 137.306 43.7253C138.002 42.6444 138.351 41.3502 138.351 39.8427C138.351 38.8613 138.209 38.0151 137.924 37.304C137.654 36.5929 137.192 35.9671 136.538 35.4267C135.883 34.8862 134.98 34.4809 133.828 34.2107C132.69 33.9404 131.289 33.8053 129.625 33.8053C129.113 33.8053 128.281 33.8409 127.129 33.912C125.977 33.9689 124.953 33.9973 124.057 33.9973H120.367V59H122.415C123.183 59.0142 124.449 59.0498 126.212 59.1067C127.976 59.1636 129.412 59.192 130.521 59.192ZM148.536 49.336V43.9813C148.536 41.4071 148.714 39.6364 149.07 38.6693C149.439 37.688 150.079 37.1973 150.99 37.1973C151.9 37.1973 152.554 37.6951 152.952 38.6907C153.351 39.6862 153.55 41.2009 153.55 43.2347V48.376C153.55 50.4667 153.457 52.0382 153.272 53.0907C153.102 54.1289 152.846 54.8187 152.504 55.16C152.163 55.4871 151.658 55.6507 150.99 55.6507C150.079 55.6507 149.439 55.1884 149.07 54.264C148.714 53.3396 148.536 51.6969 148.536 49.336ZM150.542 59.448C152.277 59.448 153.777 59.256 155.043 58.872C156.323 58.4738 157.368 57.9333 158.179 57.2507C158.99 56.5538 159.637 55.6578 160.12 54.5627C160.604 53.4533 160.938 52.2658 161.123 51C161.308 49.7342 161.4 48.248 161.4 46.5413C161.4 45.3893 161.365 44.3582 161.294 43.448C161.223 42.5378 161.095 41.6204 160.91 40.696C160.725 39.7716 160.476 38.968 160.163 38.2853C159.864 37.5884 159.459 36.9342 158.947 36.3227C158.449 35.7111 157.859 35.2133 157.176 34.8293C156.494 34.4453 155.676 34.1467 154.723 33.9333C153.77 33.7058 152.696 33.592 151.502 33.592C149.767 33.592 148.259 33.7911 146.979 34.1893C145.713 34.5876 144.675 35.1351 143.864 35.832C143.068 36.5289 142.428 37.4391 141.944 38.5627C141.461 39.672 141.127 40.8596 140.942 42.1253C140.771 43.3911 140.686 44.8773 140.686 46.584C140.686 47.736 140.721 48.7742 140.792 49.6987C140.863 50.6089 140.991 51.5262 141.176 52.4507C141.361 53.3609 141.603 54.1573 141.902 54.84C142.215 55.5227 142.62 56.1627 143.118 56.76C143.63 57.3573 144.227 57.848 144.91 58.232C145.592 58.616 146.403 58.9147 147.342 59.128C148.295 59.3413 149.361 59.448 150.542 59.448ZM173.281 59.448C174.774 59.448 176.083 59.3058 177.206 59.0213C178.344 58.7369 179.261 58.36 179.958 57.8907C180.669 57.4071 181.238 56.8098 181.665 56.0987C182.106 55.3733 182.404 54.6267 182.561 53.8587C182.731 53.0907 182.817 52.2302 182.817 51.2773V33.9973H176.075V50.2533C176.075 51.1636 176.004 51.9387 175.862 52.5787C175.734 53.2044 175.542 53.688 175.286 54.0293C175.03 54.3564 174.753 54.5911 174.454 54.7333C174.155 54.8613 173.807 54.9253 173.409 54.9253C172.683 54.9253 172.129 54.5911 171.745 53.9227C171.375 53.24 171.19 51.9956 171.19 50.1893V33.9973H163.595V51.1493C163.595 52.1164 163.688 52.9982 163.873 53.7947C164.058 54.5911 164.378 55.352 164.833 56.0773C165.302 56.7884 165.892 57.3858 166.603 57.8693C167.329 58.3529 168.253 58.7369 169.377 59.0213C170.515 59.3058 171.816 59.448 173.281 59.448ZM189.647 59H196.858V39.6507H201.85V33.9973H184.655V39.6507H189.647V59Z" fill="white"/>
</svg>
